<?xml version="1.0" standalone="no"?>
<!DOCTYPE svg PUBLIC "-//W3C//DTD SVG 20010904//EN"
 "http://www.w3.org/TR/2001/REC-SVG-20010904/DTD/svg10.dtd">
<svg version="1.0" xmlns="http://www.w3.org/2000/svg"
 width="394.000000pt" height="394.000000pt" viewBox="0 0 394.000000 394.000000"
 preserveAspectRatio="xMidYMid meet">

<g transform="translate(0.000000,394.000000) scale(0.100000,-0.100000)"
fill="#000000" stroke="none">
<path d="M100 3325 l0 -525 525 0 525 0 0 525 0 525 -525 0 -525 0 0 -525z
m900 0 l0 -375 -375 0 -375 0 0 375 0 375 375 0 375 0 0 -375z"/>
<path d="M400 3325 l0 -225 225 0 225 0 0 225 0 225 -225 0 -225 0 0 -225z"/>
<path d="M1600 3775 l0 -75 -75 0 -75 0 0 -75 0 -75 150 0 150 0 0 -225 0
-225 75 0 75 0 0 -150 0 -150 75 0 75 0 0 75 0 75 75 0 75 0 0 -75 0 -75 75 0
75 0 0 -75 0 -75 -150 0 -150 0 0 -75 0 -75 75 0 75 0 0 -75 0 -75 75 0 75 0
0 -75 0 -75 -75 0 -75 0 0 -75 0 -75 75 0 75 0 0 -150 0 -150 -225 0 -225 0 0
75 0 75 75 0 75 0 0 75 0 75 -75 0 -75 0 0 75 0 75 -75 0 -75 0 0 75 0 75 75
0 75 0 0 75 0 75 -75 0 -75 0 0 -75 0 -75 -75 0 -75 0 0 150 0 150 75 0 75 0
0 150 0 150 -75 0 -75 0 0 -150 0 -150 -75 0 -75 0 0 -75 0 -75 -75 0 -75 0 0
75 0 75 -225 0 -225 0 0 -75 0 -75 225 0 225 0 0 -75 0 -75 -150 0 -150 0 0
-75 0 -75 75 0 75 0 0 -75 0 -75 -75 0 -75 0 0 -75 0 -75 75 0 75 0 0 -75 0
-75 -300 0 -300 0 0 225 0 225 -75 0 -75 0 0 225 0 225 -150 0 -150 0 0 -75 0
-75 75 0 75 0 0 -75 0 -75 -75 0 -75 0 0 -75 0 -75 75 0 75 0 0 -75 0 -75 -75
0 -75 0 0 -375 0 -375 75 0 75 0 0 225 0 225 150 0 150 0 0 -75 0 -75 -75 0
-75 0 0 -150 0 -150 375 0 375 0 0 75 0 75 75 0 75 0 0 -300 0 -300 75 0 75 0
0 -75 0 -75 75 0 75 0 0 -75 0 -75 150 0 150 0 0 75 0 75 375 0 375 0 0 -150
0 -150 -75 0 -75 0 0 75 0 75 -75 0 -75 0 0 -75 0 -75 -75 0 -75 0 0 75 0 75
-75 0 -75 0 0 -75 0 -75 -150 0 -150 0 0 -75 0 -75 -75 0 -75 0 0 75 0 75
-150 0 -150 0 0 -150 0 -150 75 0 75 0 0 75 0 75 75 0 75 0 0 -75 0 -75 150 0
150 0 0 75 0 75 75 0 75 0 0 75 0 75 75 0 75 0 0 -75 0 -75 75 0 75 0 0 75 0
75 75 0 75 0 0 -150 0 -150 75 0 75 0 0 75 0 75 75 0 75 0 0 -75 0 -75 75 0
75 0 0 75 0 75 150 0 150 0 0 -75 0 -75 75 0 75 0 0 75 0 75 -75 0 -75 0 0 75
0 75 -75 0 -75 0 0 75 0 75 -75 0 -75 0 0 75 0 75 150 0 150 0 0 -75 0 -75 75
0 75 0 0 -75 0 -75 75 0 75 0 0 75 0 75 75 0 75 0 0 -225 0 -225 75 0 75 0 0
300 0 300 -75 0 -75 0 0 75 0 75 75 0 75 0 0 150 0 150 -75 0 -75 0 0 -75 0
-75 -75 0 -75 0 0 -75 0 -75 -150 0 -150 0 0 75 0 75 75 0 75 0 0 75 0 75 75
0 75 0 0 225 0 225 75 0 75 0 0 -75 0 -75 75 0 75 0 0 150 0 150 -75 0 -75 0
0 75 0 75 75 0 75 0 0 225 0 225 -75 0 -75 0 0 75 0 75 -150 0 -150 0 0 75 0
75 -150 0 -150 0 0 -75 0 -75 -75 0 -75 0 0 -75 0 -75 -75 0 -75 0 0 75 0 75
-75 0 -75 0 0 -75 0 -75 -75 0 -75 0 0 75 0 75 -75 0 -75 0 0 75 0 75 150 0
150 0 0 600 0 600 -75 0 -75 0 0 -150 0 -150 -75 0 -75 0 0 150 0 150 -75 0
-75 0 0 -75 0 -75 -75 0 -75 0 0 75 0 75 -225 0 -225 0 0 -75z m450 -150 l0
-75 75 0 75 0 0 -75 0 -75 75 0 75 0 0 -75 0 -75 75 0 75 0 0 -225 0 -225 -75
0 -75 0 0 75 0 75 -75 0 -75 0 0 75 0 75 -150 0 -150 0 0 75 0 75 150 0 150 0
0 75 0 75 -150 0 -150 0 0 75 0 75 -75 0 -75 0 0 75 0 75 150 0 150 0 0 -75z
m-450 -1350 l0 -75 75 0 75 0 0 -75 0 -75 75 0 75 0 0 -75 0 -75 -75 0 -75 0
0 -75 0 -75 75 0 75 0 0 -75 0 -75 225 0 225 0 0 -75 0 -75 75 0 75 0 0 150 0
150 75 0 75 0 0 150 0 150 -75 0 -75 0 0 75 0 75 150 0 150 0 0 -150 0 -150
75 0 75 0 0 -150 0 -150 -75 0 -75 0 0 -75 0 -75 -150 0 -150 0 0 -300 0 -300
-75 0 -75 0 0 75 0 75 -75 0 -75 0 0 -75 0 -75 -75 0 -75 0 0 75 0 75 -75 0
-75 0 0 -150 0 -150 -150 0 -150 0 0 75 0 75 -75 0 -75 0 0 300 0 300 75 0 75
0 0 -150 0 -150 75 0 75 0 0 -75 0 -75 75 0 75 0 0 150 0 150 -75 0 -75 0 0
150 0 150 -75 0 -75 0 0 75 0 75 -75 0 -75 0 0 -75 0 -75 -150 0 -150 0 0 -75
0 -75 -75 0 -75 0 0 75 0 75 75 0 75 0 0 75 0 75 75 0 75 0 0 75 0 75 150 0
150 0 0 150 0 150 -75 0 -75 0 0 -75 0 -75 -75 0 -75 0 0 150 0 150 150 0 150
0 0 -75z m1650 0 l0 -75 -75 0 -75 0 0 -75 0 -75 150 0 150 0 0 150 0 150 75
0 75 0 0 -75 0 -75 75 0 75 0 0 -150 0 -150 -75 0 -75 0 0 -150 0 -150 -75 0
-75 0 0 -225 0 -225 -75 0 -75 0 0 225 0 225 75 0 75 0 0 75 0 75 -150 0 -150
0 0 150 0 150 -75 0 -75 0 0 75 0 75 75 0 75 0 0 75 0 75 75 0 75 0 0 -75z
m-2850 -300 l0 -75 -75 0 -75 0 0 75 0 75 75 0 75 0 0 -75z m300 -450 l0 -75
-75 0 -75 0 0 75 0 75 75 0 75 0 0 -75z m2400 -450 l0 -225 -225 0 -225 0 0
225 0 225 225 0 225 0 0 -225z m450 -450 l0 -75 -75 0 -75 0 0 75 0 75 75 0
75 0 0 -75z m-600 -150 l0 -75 -75 0 -75 0 0 75 0 75 75 0 75 0 0 -75z"/>
<path d="M2050 1375 l0 -75 75 0 75 0 0 -75 0 -75 -75 0 -75 0 0 -75 0 -75 75
0 75 0 0 75 0 75 75 0 75 0 0 150 0 150 -150 0 -150 0 0 -75z"/>
<path d="M2800 1075 l0 -75 75 0 75 0 0 75 0 75 -75 0 -75 0 0 -75z"/>
<path d="M2800 3325 l0 -525 525 0 525 0 0 525 0 525 -525 0 -525 0 0 -525z
m900 0 l0 -375 -375 0 -375 0 0 375 0 375 375 0 375 0 0 -375z"/>
<path d="M3100 3325 l0 -225 225 0 225 0 0 225 0 225 -225 0 -225 0 0 -225z"/>
<path d="M1300 3250 l0 -150 150 0 150 0 0 75 0 75 -75 0 -75 0 0 75 0 75 -75
0 -75 0 0 -150z"/>
<path d="M1300 2875 l0 -75 75 0 75 0 0 75 0 75 -75 0 -75 0 0 -75z"/>
<path d="M700 2275 l0 -75 75 0 75 0 0 75 0 75 -75 0 -75 0 0 -75z"/>
<path d="M100 625 l0 -525 525 0 525 0 0 525 0 525 -525 0 -525 0 0 -525z
m900 0 l0 -375 -375 0 -375 0 0 375 0 375 375 0 375 0 0 -375z"/>
<path d="M400 625 l0 -225 225 0 225 0 0 225 0 225 -225 0 -225 0 0 -225z"/>
</g>
</svg>
